<svg width="24" height="25" viewBox="0 0 24 25" fill="none" xmlns="http://www.w3.org/2000/svg">
<path fill-rule="evenodd" clip-rule="evenodd" d="M3.2104 11.8095C7.93485 9.55156 11.0852 8.06297 12.6615 7.34375C17.1622 5.29025 18.0974 4.93354 18.7069 4.92176C18.841 4.91917 19.1407 4.95561 19.3349 5.12845C19.4989 5.27439 19.544 5.47153 19.5656 5.60989C19.5871 5.74826 19.614 6.06346 19.5927 6.30974C19.3488 9.12083 18.2934 15.9426 17.7566 19.0911C17.5294 20.4233 17.0821 20.87 16.649 20.9137C15.7079 21.0087 14.9932 20.2314 14.0817 19.576C12.6553 18.5503 11.8495 17.9118 10.465 16.911C8.86495 15.7543 9.90221 15.1186 10.8141 14.0796C11.0527 13.8077 15.1993 9.67031 15.2796 9.29498C15.2896 9.24804 15.299 9.07306 15.2042 8.98067C15.1094 8.88828 14.9696 8.91987 14.8687 8.945C14.7256 8.98062 12.447 10.6328 8.03276 13.9014C7.38598 14.3886 6.80015 14.626 6.27526 14.6135C5.69661 14.5998 4.58353 14.2546 3.75607 13.9596C2.74115 13.5977 1.93451 13.4063 2.00475 12.7917C2.04134 12.4716 2.44322 12.1442 3.2104 11.8095Z" fill="white"/>
</svg>
