<svg width="28" height="23" viewBox="0 0 28 23" fill="none" xmlns="http://www.w3.org/2000/svg">
<path d="M5.3365 22.1244V20.6876C5.3365 20.1368 5.00397 19.7776 4.43391 19.7776C4.14888 19.7776 3.8401 19.8734 3.62633 20.1847C3.46007 19.9213 3.22254 19.7776 2.86626 19.7776C2.62873 19.7776 2.39121 19.8495 2.20119 20.1129V19.8255H1.70239V22.1244H2.20119V20.8552C2.20119 20.4481 2.41496 20.2566 2.7475 20.2566C3.08003 20.2566 3.24629 20.4721 3.24629 20.8552V22.1244H3.74509V20.8552C3.74509 20.4481 3.98262 20.2566 4.2914 20.2566C4.62393 20.2566 4.7902 20.4721 4.7902 20.8552V22.1244H5.3365ZM12.7235 19.8255H11.9159V19.131H11.4171V19.8255H10.9658V20.2805H11.4171V21.3342C11.4171 21.861 11.6309 22.1723 12.2009 22.1723C12.4147 22.1723 12.6522 22.1005 12.8185 22.0047L12.676 21.5736C12.5335 21.6694 12.3672 21.6934 12.2484 21.6934C12.0109 21.6934 11.9159 21.5497 11.9159 21.3102V20.2805H12.7235V19.8255ZM16.9514 19.7776C16.6664 19.7776 16.4764 19.9213 16.3576 20.1129V19.8255H15.8588V22.1244H16.3576V20.8313C16.3576 20.4481 16.5239 20.2326 16.8326 20.2326C16.9276 20.2326 17.0464 20.2566 17.1414 20.2805L17.2839 19.8016C17.1889 19.7776 17.0464 19.7776 16.9514 19.7776ZM10.562 20.0171C10.3245 19.8495 9.99196 19.7776 9.63567 19.7776C9.06562 19.7776 8.68558 20.065 8.68558 20.52C8.68558 20.9031 8.97061 21.1186 9.46941 21.1905L9.70693 21.2144C9.96821 21.2623 10.1107 21.3342 10.1107 21.4539C10.1107 21.6215 9.9207 21.7413 9.58817 21.7413C9.25564 21.7413 8.99436 21.6215 8.82809 21.5018L8.59057 21.8849C8.85185 22.0765 9.20813 22.1723 9.56442 22.1723C10.2295 22.1723 10.6095 21.861 10.6095 21.43C10.6095 21.0229 10.3007 20.8073 9.82569 20.7355L9.58817 20.7115C9.3744 20.6876 9.20813 20.6397 9.20813 20.496C9.20813 20.3284 9.3744 20.2326 9.63567 20.2326C9.9207 20.2326 10.2057 20.3523 10.3482 20.4242L10.562 20.0171ZM23.8158 19.7776C23.5308 19.7776 23.3408 19.9213 23.222 20.1129V19.8255H22.7232V22.1244H23.222V20.8313C23.222 20.4481 23.3883 20.2326 23.6971 20.2326C23.7921 20.2326 23.9108 20.2566 24.0058 20.2805L24.1484 19.8016C24.0533 19.7776 23.9108 19.7776 23.8158 19.7776ZM17.4502 20.975C17.4502 21.6694 17.9252 22.1723 18.6616 22.1723C18.9941 22.1723 19.2316 22.1005 19.4691 21.9089L19.2316 21.5018C19.0416 21.6455 18.8516 21.7173 18.6378 21.7173C18.234 21.7173 17.949 21.43 17.949 20.975C17.949 20.5439 18.234 20.2566 18.6378 20.2326C18.8516 20.2326 19.0416 20.3044 19.2316 20.4481L19.4691 20.041C19.2316 19.8495 18.9941 19.7776 18.6616 19.7776C17.9252 19.7776 17.4502 20.2805 17.4502 20.975ZM22.0582 20.975V19.8255H21.5594V20.1129C21.3931 19.8973 21.1556 19.7776 20.8468 19.7776C20.2055 19.7776 19.7067 20.2805 19.7067 20.975C19.7067 21.6694 20.2055 22.1723 20.8468 22.1723C21.1793 22.1723 21.4168 22.0526 21.5594 21.837V22.1244H22.0582V20.975ZM20.2292 20.975C20.2292 20.5679 20.4905 20.2326 20.918 20.2326C21.3218 20.2326 21.6069 20.5439 21.6069 20.975C21.6069 21.3821 21.3218 21.7173 20.918 21.7173C20.4905 21.6934 20.2292 21.3821 20.2292 20.975ZM14.2674 19.7776C13.6023 19.7776 13.1273 20.2566 13.1273 20.975C13.1273 21.6934 13.6023 22.1723 14.2911 22.1723C14.6237 22.1723 14.9562 22.0765 15.2175 21.861L14.98 21.5018C14.7899 21.6455 14.5524 21.7413 14.3149 21.7413C14.0061 21.7413 13.6973 21.5976 13.6261 21.1905H15.3125V20.9989C15.3362 20.2566 14.9087 19.7776 14.2674 19.7776ZM14.2674 20.2087C14.5762 20.2087 14.7899 20.4002 14.8374 20.7594H13.6498C13.6973 20.4481 13.9111 20.2087 14.2674 20.2087ZM26.6424 20.975V18.9155H26.1436V20.1129C25.9773 19.8973 25.7398 19.7776 25.431 19.7776C24.7897 19.7776 24.2909 20.2805 24.2909 20.975C24.2909 21.6694 24.7897 22.1723 25.431 22.1723C25.7635 22.1723 26.001 22.0526 26.1436 21.837V22.1244H26.6424V20.975ZM24.8134 20.975C24.8134 20.5679 25.0747 20.2326 25.5022 20.2326C25.906 20.2326 26.1911 20.5439 26.1911 20.975C26.1911 21.3821 25.906 21.7173 25.5022 21.7173C25.0747 21.6934 24.8134 21.3821 24.8134 20.975ZM8.13928 20.975V19.8255H7.64048V20.1129C7.47421 19.8973 7.23669 19.7776 6.92791 19.7776C6.28659 19.7776 5.7878 20.2805 5.7878 20.975C5.7878 21.6694 6.28659 22.1723 6.92791 22.1723C7.26044 22.1723 7.49796 22.0526 7.64048 21.837V22.1244H8.13928V20.975ZM6.28659 20.975C6.28659 20.5679 6.54787 20.2326 6.97541 20.2326C7.3792 20.2326 7.66423 20.5439 7.66423 20.975C7.66423 21.3821 7.3792 21.7173 6.97541 21.7173C6.54787 21.6934 6.28659 21.3821 6.28659 20.975Z" fill="#FCFCFC"/>
<path d="M17.8777 2.36792H10.3958V15.9219H17.8777V2.36792Z" fill="#FF5F00"/>
<path d="M10.8708 9.14481C10.8708 6.39092 12.1534 3.94833 14.1249 2.36784C12.676 1.21839 10.8471 0.523926 8.85187 0.523926C4.12515 0.523926 0.301025 4.37938 0.301025 9.14481C0.301025 13.9102 4.12515 17.7657 8.85187 17.7657C10.8471 17.7657 12.676 17.0712 14.1249 15.9218C12.1534 14.3652 10.8708 11.8987 10.8708 9.14481Z" fill="#EB001B"/>
<path d="M27.9725 9.14481C27.9725 13.9102 24.1484 17.7657 19.4217 17.7657C17.4265 17.7657 15.5976 17.0712 14.1487 15.9218C16.1439 14.3413 17.4028 11.8987 17.4028 9.14481C17.4028 6.39092 16.1201 3.94833 14.1487 2.36784C15.5976 1.21839 17.4265 0.523926 19.4217 0.523926C24.1484 0.523926 27.9725 4.40333 27.9725 9.14481Z" fill="#F79E1B"/>
</svg>
