<svg width="40" height="13" viewBox="0 0 40 13" fill="none" xmlns="http://www.w3.org/2000/svg">
<path d="M17.6236 12.47H14.4263L16.4245 0.258966H19.6222L17.6236 12.47ZM11.7365 0.258966L8.68839 8.65784L8.3277 6.84924L8.32803 6.84989L7.25219 1.35843C7.25219 1.35843 7.12211 0.258966 5.73551 0.258966H0.696337L0.637207 0.465728C0.637207 0.465728 2.1782 0.784528 3.98166 1.86146L6.75944 12.4704H10.0908L15.1776 0.258966H11.7365ZM36.8848 12.47H39.8206L37.2609 0.25864H34.6907C33.5039 0.25864 33.2148 1.16866 33.2148 1.16866L28.4463 12.47H31.7792L32.4458 10.6562H36.5103L36.8848 12.47ZM33.3666 8.15057L35.0465 3.58088L35.9916 8.15057H33.3666ZM28.6963 3.19545L29.1526 0.573192C29.1526 0.573192 27.7446 0.0407715 26.2769 0.0407715C24.6902 0.0407715 20.9223 0.730306 20.9223 4.08326C20.9223 7.23794 25.3446 7.27713 25.3446 8.93417C25.3446 10.5912 21.378 10.2943 20.0689 9.24938L19.5936 11.9912C19.5936 11.9912 21.0212 12.6807 23.2025 12.6807C25.3844 12.6807 28.6759 11.5574 28.6759 8.50007C28.6759 5.32514 24.2139 5.02953 24.2139 3.64915C24.2142 2.26845 27.3281 2.44581 28.6963 3.19545Z" fill="#2566AF"/>
</svg>
