<svg width="56" height="57" viewBox="0 0 56 57" fill="none" xmlns="http://www.w3.org/2000/svg">
<path d="M21.5863 12.2117V27.8645H30.9674C31.3078 27.8645 31.7226 27.8537 32.2119 27.8321C32.7224 27.7889 33.2862 27.6808 33.9031 27.508C35.6687 27.0111 36.945 26.1145 37.7321 24.8182C38.5192 23.5003 38.9127 21.9663 38.9127 20.2163C38.9127 19.1577 38.7532 18.0991 38.4341 17.0404C38.1363 15.9602 37.6151 15.0095 36.8706 14.1886C36.1473 13.3676 35.1581 12.795 33.9031 12.471C33.35 12.3197 32.7863 12.2333 32.2119 12.2117C31.7312 12.1929 24.2695 12.2068 22.1423 12.2107M21.5863 12.2117C21.6225 12.2117 21.8219 12.2113 22.1423 12.2107M21.5863 12.2117L22.1423 12.2107M21.5863 34.508L31.2865 34.5404C31.5205 34.5404 31.9779 34.5296 32.6586 34.508C33.3606 34.4648 34.1371 34.3892 34.988 34.2812C38.9021 33.6762 41.8271 32.1099 43.7629 29.5821C45.6987 27.0543 46.6666 23.8568 46.6666 19.9895C46.6666 17.4617 46.2411 15.15 45.3902 13.0543C44.5606 10.937 43.2736 9.18701 41.5293 7.8043C39.8062 6.42158 37.6258 5.52498 34.988 5.11448C34.1371 4.98485 33.3606 4.90924 32.6586 4.88763C31.9779 4.86603 31.5205 4.85522 31.2865 4.85522H21.5863H20.4603C16.8351 4.85522 13.8962 7.83998 13.8962 11.5219L13.8962 40.2117H12.3486C10.6833 40.2117 9.33325 41.5828 9.33325 43.2742C9.33325 44.9656 10.6833 46.3367 12.3486 46.3367L13.8962 46.3367L13.8962 47.6168C13.8962 49.7735 15.6177 51.5219 17.7412 51.5219C19.8648 51.5219 21.5863 49.7735 21.5863 47.6168L21.5862 46.3367L33.5361 46.3367C35.2014 46.3367 36.5515 44.9656 36.5515 43.2742C36.5515 41.5828 35.2014 40.2117 33.5361 40.2117H21.5863" stroke="#4EBC7A" stroke-width="2.4" stroke-linecap="round" stroke-linejoin="round"/>
</svg>
