<svg width="25" height="25" viewBox="0 0 25 25" fill="none" xmlns="http://www.w3.org/2000/svg">
<path d="M19.915 22.5C20.7435 22.5 21.415 21.8284 21.415 21C21.415 20.1716 20.7435 19.5 19.915 19.5C19.0866 19.5 18.415 20.1716 18.415 21C18.415 21.8284 19.0866 22.5 19.915 22.5Z" fill="#FCFCFC" stroke="#FCFCFC" stroke-width="1.5" stroke-linecap="round" stroke-linejoin="round"/>
<path d="M9.91504 22.5C10.7435 22.5 11.415 21.8284 11.415 21C11.415 20.1716 10.7435 19.5 9.91504 19.5C9.08661 19.5 8.41504 20.1716 8.41504 21C8.41504 21.8284 9.08661 22.5 9.91504 22.5Z" fill="#FCFCFC" stroke="#FCFCFC" stroke-width="1.5" stroke-linecap="round" stroke-linejoin="round"/>
<path d="M22.415 4.5L20.415 15.5H7.41504L5.41504 4.5H22.415Z" fill="#FCFCFC"/>
<path d="M5.41504 4.5H22.415L20.415 15.5H7.41504L5.41504 4.5ZM5.41504 4.5C5.24837 3.83333 4.41504 2.5 2.41504 2.5" stroke="#FCFCFC" stroke-width="1.5" stroke-linecap="round" stroke-linejoin="round"/>
<path d="M19.8429 15.5H8.41504H6.64581C4.8615 15.5 3.91504 16.2812 3.91504 17.5C3.91504 18.7188 4.8615 19.5 6.64581 19.5H19.8429" stroke="#FCFCFC" stroke-width="1.5" stroke-linecap="round" stroke-linejoin="round"/>
</svg>
