<svg width="45" height="13" viewBox="0 0 45 13" fill="none" xmlns="http://www.w3.org/2000/svg">
<path fill-rule="evenodd" clip-rule="evenodd" d="M4.86039 0.423902C5.24865 0.421575 6.40254 0.317441 6.89131 1.97033C7.22055 3.08373 7.745 4.90753 8.46468 7.44174H8.75777C9.52956 4.77 10.0597 2.9462 10.3483 1.97033C10.8422 0.300223 12.0768 0.423935 12.5707 0.423935L16.3809 0.423939V12.3002H12.4974V5.30132H12.237L10.0721 12.3002H7.15031L4.98546 5.29613H4.72504V12.3002H0.841553V0.423939L4.86039 0.423902ZM21.9575 0.423939V7.42803H22.2673L24.9007 1.66862C25.4118 0.522476 26.5013 0.423939 26.5013 0.423939H30.2594V12.3002H26.2948V5.29613H25.985L23.4033 11.0555C22.8921 12.1965 21.751 12.3002 21.751 12.3002H17.9929V0.423939H21.9575ZM43.9628 6.06763C43.4098 7.63789 41.6731 8.76247 39.7503 8.76247H35.5926V12.3002H31.8225V6.06763H43.9628Z" fill="#0F754E"/>
<path fill-rule="evenodd" clip-rule="evenodd" d="M39.932 0.423828H31.6248C31.8225 3.06789 34.0949 5.33138 36.4474 5.33138H44.2247C44.6735 3.13385 43.1284 0.423828 39.932 0.423828Z" fill="url(#paint0_linear_5968_14091)"/>
<defs>
<linearGradient id="paint0_linear_5968_14091" x1="1299.24" y1="309.13" x2="31.6248" y2="309.13" gradientUnits="userSpaceOnUse">
<stop stop-color="#1F5CD7"/>
<stop offset="1" stop-color="#02AEFF"/>
</linearGradient>
</defs>
</svg>
